<svg width="128" height="128" viewBox="0 0 128 128" xmlns="http://www.w3.org/2000/svg">
  <defs>
    <linearGradient id="grad1" x1="0%" y1="0%" x2="100%" y2="100%">
      <stop offset="0%" style="stop-color:#667eea;stop-opacity:1" />
      <stop offset="100%" style="stop-color:#764ba2;stop-opacity:1" />
    </linearGradient>
  </defs>
  
  <!-- Background circle -->
  <circle cx="64" cy="64" r="60" fill="url(#grad1)" stroke="#fff" stroke-width="4"/>
  
  <!-- Brain icon -->
  <path d="M40 50 C40 40, 50 35, 64 40 C78 35, 88 40, 88 50 C88 60, 85 70, 80 75 C85 80, 88 90, 88 100 C88 110, 78 115, 64 110 C50 115, 40 110, 40 100 C40 90, 43 80, 48 75 C43 70, 40 60, 40 50 Z" fill="#fff"/>
  
  <!-- Neural network lines -->
  <path d="M50 60 L60 70 L70 60 L80 70" stroke="#667eea" stroke-width="2" fill="none"/>
  <path d="M45 80 L55 90 L65 80 L75 90" stroke="#667eea" stroke-width="2" fill="none"/>
  
  <!-- Document icon -->
  <rect x="75" y="25" width="20" height="25" rx="2" fill="#fff" opacity="0.8"/>
  <rect x="78" y="30" width="14" height="1" fill="#667eea"/>
  <rect x="78" y="33" width="10" height="1" fill="#667eea"/>
  <rect x="78" y="36" width="12" height="1" fill="#667eea"/>
</svg>
